STARTFONT 2.1
FONT -Monotype-Bookman Old Style-Regular-R-Normal--33-240-100-100-P-162-iso8859-2
SIZE 24 100 100
FONTBOUNDINGBOX 47 39 -6 -8

STARTPROPERTIES 24
FOUNDRY "Monotype"
FAMILY_NAME "Bookman Old Style"
WEIGHT_NAME "Regular"
SLANT "R"
SETWIDTH_NAME "Normal"
ADD_STYLE_NAME ""
PIXEL_SIZE 33
POINT_SIZE 240
RESOLUTION_X 100
RESOLUTION_Y 100
SPACING "P"
AVERAGE_WIDTH 162
CHARSET_REGISTRY "iso8859"
CHARSET_ENCODING "2"
FACE_NAME "Bookman Old Style ISO Latin2"
_DEC_DEVICE_FONTNAMES "PS=bookmanoldstyle-lat2"
COPYRIGHT "Copyright (c) 1993 Monotype Typography Ltd."
CAP_HEIGHT 26
X_HEIGHT 18
WEIGHT 10
QUAD_WIDTH 19
DEFAULT_CHAR 160
FONT_DESCENT 8
FONT_ASCENT 31
ENDPROPERTIES

CHARS 191

STARTCHAR space
ENCODING 32
SWIDTH 320 0
DWIDTH 11 0
BBX 0 0 0 0
BITMAP
ENDCHAR

STARTCHAR exclam
ENCODING 33
SWIDTH 300 0
DWIDTH 10 0
BBX 4 23 3 0
BITMAP
F0
F0
F0
F0
F0
F0
F0
F0
60
60
60
60
60
60
60
60
60
00
00
60
F0
F0
60
ENDCHAR

STARTCHAR quotedbl
ENCODING 34
SWIDTH 380 0
DWIDTH 13 0
BBX 7 8 3 15
BITMAP
C6
C6
C6
C6
C6
C6
C6
82
ENDCHAR

STARTCHAR numbersign
ENCODING 35
SWIDTH 600 0
DWIDTH 20 0
BBX 16 22 2 0
BITMAP
020C
060C
0618
0618
0618
0618
0618
7FFF
7FFF
0C30
0C30
0C30
0C30
FFFE
FFFE
1820
1860
1860
1860
1860
1060
3060
ENDCHAR

STARTCHAR dollar
ENCODING 36
SWIDTH 620 0
DWIDTH 20 0
BBX 17 30 2 -4
BITMAP
018000
018000
018000
038000
1FE600
39BE00
718E00
E18600
E18700
E18300
E18100
798000
3F8000
1FC000
07F800
01FE00
019F00
418700
C18380
C18380
E18380
E18380
718700
6D8E00
4FFC00
43F000
018000
018000
018000
018000
ENDCHAR

STARTCHAR percent
ENCODING 37
SWIDTH 900 0
DWIDTH 30 0
BBX 27 23 1 0
BITMAP
1E000C00
73801800
61803000
C0C03000
C0C06000
C0C0C000
C0C0C000
C0C18000
C0C10000
61830000
73860000
1E040F00
000C39C0
001830C0
00106060
00306060
00606060
00606060
00C06060
01806060
018030C0
030039C0
06000F00
ENDCHAR

STARTCHAR ampersand
ENCODING 38
SWIDTH 800 0
DWIDTH 26 0
BBX 24 23 2 0
BITMAP
01C000
07F000
0C1800
1C1C00
180C00
180C00
1C1C00
0C1800
03F000
07C1FC
1E7070
383820
701C60
601E60
E00E40
E00FCC
E007CE
E0038F
700383
7807C3
3C1EE3
1FF8FE
07E038
ENDCHAR

STARTCHAR quoteright
ENCODING 39
SWIDTH 220 0
DWIDTH 7 0
BBX 5 10 1 14
BITMAP
60
F0
F8
78
18
10
30
60
C0
40
ENDCHAR

STARTCHAR parenleft
ENCODING 40
SWIDTH 300 0
DWIDTH 10 0
BBX 6 32 3 -8
BITMAP
04
0C
18
18
30
30
70
70
60
E0
E0
E0
E0
E0
E0
E0
E0
E0
E0
E0
E0
E0
E0
60
70
70
30
30
18
18
0C
04
ENDCHAR

STARTCHAR parenright
ENCODING 41
SWIDTH 300 0
DWIDTH 10 0
BBX 6 32 1 -8
BITMAP
40
C0
60
60
30
30
38
18
18
1C
1C
1C
1C
1C
1C
1C
1C
1C
1C
1C
1C
1C
1C
18
18
38
30
30
70
60
C0
40
ENDCHAR

STARTCHAR asterisk
ENCODING 42
SWIDTH 440 0
DWIDTH 15 0
BBX 12 11 1 12
BITMAP
0600
0600
0600
0620
F0F0
FFF0
0600
0D00
1980
39C0
30C0
ENDCHAR

STARTCHAR plus
ENCODING 43
SWIDTH 600 0
DWIDTH 20 0
BBX 16 16 2 3
BITMAP
0180
0180
0180
0180
0180
0180
0180
FFFF
FFFF
0180
0180
0180
0180
0180
0180
0180
ENDCHAR

STARTCHAR comma
ENCODING 44
SWIDTH 320 0
DWIDTH 11 0
BBX 5 10 3 -6
BITMAP
60
F0
F8
78
18
10
30
60
C0
80
ENDCHAR

STARTCHAR minus
ENCODING 45
SWIDTH 600 0
DWIDTH 20 0
BBX 16 2 2 10
BITMAP
FFFF
FFFF
ENDCHAR

STARTCHAR period
ENCODING 46
SWIDTH 320 0
DWIDTH 11 0
BBX 4 4 3 0
BITMAP
60
F0
F0
60
ENDCHAR

STARTCHAR slash
ENCODING 47
SWIDTH 600 0
DWIDTH 20 0
BBX 13 31 3 -7
BITMAP
0018
0038
0030
0030
0070
0060
00E0
00E0
00C0
01C0
01C0
0180
0380
0300
0300
0700
0600
0600
0E00
0C00
0C00
1C00
1800
3800
3800
3000
7000
6000
6000
E000
C000
ENDCHAR

STARTCHAR zero
ENCODING 48
SWIDTH 620 0
DWIDTH 20 0
BBX 17 23 2 0
BITMAP
03E000
0FF800
1C1C00
380E00
700700
700700
700700
E00380
E00380
E00380
E00380
E00380
E00380
E00380
E00380
E00380
700700
700700
700700
380E00
1C1C00
0FF800
03E000
ENDCHAR

STARTCHAR one
ENCODING 49
SWIDTH 620 0
DWIDTH 20 0
BBX 11 23 5 0
BITMAP
0600
1E00
FE00
FE00
0E00
0E00
0E00
0E00
0E00
0E00
0E00
0E00
0E00
0E00
0E00
0E00
0E00
0E00
0E00
0E00
0E00
1E00
FFE0
ENDCHAR

STARTCHAR two
ENCODING 50
SWIDTH 620 0
DWIDTH 20 0
BBX 16 24 2 -1
BITMAP
07E0
1FF8
383E
700E
600F
C007
C007
C007
C007
0007
000E
000E
001C
0038
0070
00E0
01C0
0700
0E01
1801
3003
FFFF
FFFE
0002
ENDCHAR

STARTCHAR three
ENCODING 51
SWIDTH 620 0
DWIDTH 20 0
BBX 17 23 1 0
BITMAP
03F000
0FFC00
1C1E00
380F00
300700
300700
100700
000700
000E00
001C00
03F000
03FC00
000E00
000700
000380
000380
600380
F00380
700780
700700
381E00
0FFC00
03E000
ENDCHAR

STARTCHAR four
ENCODING 52
SWIDTH 620 0
DWIDTH 20 0
BBX 17 23 2 0
BITMAP
003800
007800
00F800
01B800
033800
073800
063800
0C3800
183800
303800
603800
C03800
803800
FFFF80
FFFF80
003800
003800
003800
003800
003800
003800
003800
003800
ENDCHAR

STARTCHAR five
ENCODING 53
SWIDTH 620 0
DWIDTH 20 0
BBX 16 24 3 0
BITMAP
0004
3FFC
3FFC
3FFC
2000
2000
6000
6000
6000
7FE0
7FF8
607C
001E
000E
0007
0007
0007
4007
E007
E00E
F00E
783C
1FF0
07C0
ENDCHAR

STARTCHAR six
ENCODING 54
SWIDTH 620 0
DWIDTH 20 0
BBX 17 24 2 0
BITMAP
007E00
03FE00
078000
1E0000
3C0000
380000
700000
700000
F1F000
E7FC00
EC1E00
F80F00
F00780
F00380
E00380
E00380
E00380
E00380
700780
700700
380F00
1C1E00
0FFC00
03E000
ENDCHAR

STARTCHAR seven
ENCODING 55
SWIDTH 620 0
DWIDTH 20 0
BBX 17 24 2 0
BITMAP
600000
7FFF80
7FFF80
600300
C00600
C00400
800C00
001800
003800
003000
007000
006000
00E000
01C000
01C000
01C000
038000
038000
038000
078000
070000
070000
070000
070000
ENDCHAR

STARTCHAR eight
ENCODING 56
SWIDTH 620 0
DWIDTH 20 0
BBX 17 23 2 0
BITMAP
03E000
0FFC00
1C0E00
380600
300700
300700
380700
380E00
3E1C00
1FB800
03F000
07FC00
1C7E00
380F00
700780
E00380
E00380
E00380
600300
700700
380E00
1FFC00
03E000
ENDCHAR

STARTCHAR nine
ENCODING 57
SWIDTH 620 0
DWIDTH 20 0
BBX 17 23 1 0
BITMAP
0FF000
1E3C00
380E00
700700
F00700
E00380
E00380
E00380
E00380
E00780
F00780
780D80
3C1B80
1FF380
07C380
000700
000700
000E00
001E00
003C00
00F000
3FE000
3F0000
ENDCHAR

STARTCHAR colon
ENCODING 58
SWIDTH 320 0
DWIDTH 11 0
BBX 4 16 3 0
BITMAP
60
F0
F0
60
00
00
00
00
00
00
00
00
60
F0
F0
60
ENDCHAR

STARTCHAR semicolon
ENCODING 59
SWIDTH 320 0
DWIDTH 11 0
BBX 5 22 3 -6
BITMAP
60
F0
F0
60
00
00
00
00
00
00
00
00
60
F0
F8
78
18
10
30
60
C0
80
ENDCHAR

STARTCHAR less
ENCODING 60
SWIDTH 600 0
DWIDTH 20 0
BBX 15 14 2 3
BITMAP
0006
003E
00F8
03E0
0F80
7C00
E000
F800
3E00
07C0
01F0
007C
001E
0006
ENDCHAR

STARTCHAR equal
ENCODING 61
SWIDTH 600 0
DWIDTH 20 0
BBX 16 7 2 8
BITMAP
FFFF
FFFF
0000
0000
0000
FFFF
FFFF
ENDCHAR

STARTCHAR greater
ENCODING 62
SWIDTH 600 0
DWIDTH 20 0
BBX 14 14 3 3
BITMAP
C000
F000
7E00
0F80
03E0
00F8
001C
003C
01F8
07C0
1F00
7C00
F000
8000
ENDCHAR

STARTCHAR question
ENCODING 63
SWIDTH 540 0
DWIDTH 18 0
BBX 15 23 2 0
BITMAP
0F80
3FF0
F878
F01C
E01C
000E
000E
000E
000E
001E
001C
007C
0FF0
0FE0
0C00
0C00
0C00
0C00
0000
0C00
1E00
1E00
0C00
ENDCHAR

STARTCHAR at
ENCODING 64
SWIDTH 820 0
DWIDTH 27 0
BBX 28 30 0 -7
BITMAP
000FF000
00700C00
01C00200
03000100
06000080
0C000040
18000040
30039820
300C5820
60183820
60383820
40703020
40603020
C0E07020
C0C06060
C0C06040
C1C0E040
C1C1E080
41C2C180
41C4C300
60F8E610
20707830
30000020
10000060
180000C0
0C000180
06000300
03800600
00E03800
001FC000
ENDCHAR

STARTCHAR A
ENCODING 65
SWIDTH 680 0
DWIDTH 22 0
BBX 22 23 0 0
BITMAP
003800
007800
007C00
005C00
00DC00
00DE00
008E00
018E00
018F00
010700
030700
030780
060380
07FF80
07FFC0
0C01C0
0C01E0
0C00E0
1800E0
1800F0
380070
7800F8
FE03FC
ENDCHAR

STARTCHAR B
ENCODING 66
SWIDTH 740 0
DWIDTH 24 0
BBX 22 23 1 0
BITMAP
FFFF80
7FFFE0
1C00F0
1C0078
1C0038
1C0038
1C0038
1C0078
1C0070
1C01E0
1FFF80
1FFFE0
1C00F8
1C0038
1C003C
1C001C
1C001C
1C001C
1C003C
1C0078
1C00F8
FFFFE0
FFFF00
ENDCHAR

STARTCHAR C
ENCODING 67
SWIDTH 740 0
DWIDTH 24 0
BBX 21 23 2 0
BITMAP
00FC60
07FF60
0F03E0
1E00F0
3C0070
780030
700030
700018
F00000
E00000
E00000
E00000
E00000
F00000
F00000
F00000
780008
780018
3C0030
1E0070
0F83C0
07FF80
00FC00
ENDCHAR

STARTCHAR D
ENCODING 68
SWIDTH 800 0
DWIDTH 26 0
BBX 23 23 1 0
BITMAP
FFFE00
7FFFC0
1C03E0
1C00F0
1C0078
1C003C
1C001C
1C001E
1C001E
1C000E
1C000E
1C000E
1C000E
1C000E
1C001E
1C001E
1C001C
1C003C
1C0038
1C0078
1C01F0
FFFFC0
FFFE00
ENDCHAR

STARTCHAR E
ENCODING 69
SWIDTH 720 0
DWIDTH 24 0
BBX 22 23 1 0
BITMAP
FFFFE0
7FFFE0
1C00E0
1C0070
1C0030
1C0018
1C0C10
1C0C00
1C0C00
1C1C00
1FFC00
1FFC00
1C1C00
1C0C00
1C0C00
1C0C0C
1C0018
1C0018
1C0038
1C0070
1C01F0
FFFFF0
FFFFE0
ENDCHAR

STARTCHAR F
ENCODING 70
SWIDTH 640 0
DWIDTH 21 0
BBX 19 23 2 0
BITMAP
FFFFC0
7FFFC0
1C01C0
1C00E0
1C0060
1C0060
1C0020
1C0C00
1C0C00
1C0C00
1C1C00
1FFC00
1FFC00
1C1C00
1C0C00
1C0C00
1C0C00
1C0000
1C0000
1C0000
1C0000
3E0000
FF8000
ENDCHAR

STARTCHAR G
ENCODING 71
SWIDTH 800 0
DWIDTH 26 0
BBX 24 23 2 0
BITMAP
00FC20
03FF60
0F81F0
1E00F0
3C0070
380030
780018
700018
F00000
F00000
E00000
E00000
E003FF
F00078
F00038
F00038
780038
780038
3C0038
1E0078
0F81F8
03FF98
00FC18
ENDCHAR

STARTCHAR H
ENCODING 72
SWIDTH 800 0
DWIDTH 26 0
BBX 24 23 1 0
BITMAP
FF81FF
3E007C
1C0038
1C0038
1C0038
1C0038
1C0038
1C0038
1C0038
1C0038
1FFFF8
1FFFF8
1C0038
1C0038
1C0038
1C0038
1C0038
1C0038
1C0038
1C0038
1C0038
3E0078
FF81FF
ENDCHAR

STARTCHAR I
ENCODING 73
SWIDTH 340 0
DWIDTH 11 0
BBX 9 23 1 0
BITMAP
FF80
3E00
1C00
1C00
1C00
1C00
1C00
1C00
1C00
1C00
1C00
1C00
1C00
1C00
1C00
1C00
1C00
1C00
1C00
1C00
1C00
3E00
FF80
ENDCHAR

STARTCHAR J
ENCODING 74
SWIDTH 600 0
DWIDTH 20 0
BBX 19 23 0 0
BITMAP
003FE0
000F80
000700
000700
000700
000700
000700
000700
000700
000700
000700
000700
000700
000700
600700
E00700
E00700
E00700
E00F00
700E00
383C00
1FF800
07E000
ENDCHAR

STARTCHAR K
ENCODING 75
SWIDTH 720 0
DWIDTH 24 0
BBX 22 23 1 0
BITMAP
FF87F8
3E01F0
1C01C0
1C0380
1C0700
1C0E00
1C1C00
1C1800
1C3000
1C6000
1CF000
1DF000
1D7800
1E3C00
1C1E00
1C1E00
1C0F00
1C0780
1C0380
1C03C0
1C01E0
3E01F0
FF87FC
ENDCHAR

STARTCHAR L
ENCODING 76
SWIDTH 600 0
DWIDTH 20 0
BBX 19 23 1 0
BITMAP
FF8000
3E0000
1C0000
1C0000
1C0000
1C0000
1C0000
1C0000
1C0000
1C0000
1C0000
1C0000
1C0000
1C0000
1C0000
1C0040
1C0060
1C00C0
1C01C0
1C0380
1C0F80
FFFF80
FFFF00
ENDCHAR

STARTCHAR M
ENCODING 77
SWIDTH 920 0
DWIDTH 30 0
BBX 27 23 2 0
BITMAP
FE000FE0
3F001F80
1F001B00
1B001B00
1B803700
1B803700
1B803700
19C06700
19C06700
19E06700
18E0C700
18E0C700
18F08700
18718700
18718700
18390700
183B0700
183B0700
181E0700
181E0700
181E0700
3C0C0F80
FF0C3FE0
ENDCHAR

STARTCHAR N
ENCODING 78
SWIDTH 740 0
DWIDTH 24 0
BBX 22 23 1 0
BITMAP
FE03FC
3F00F0
1B8060
1B8060
1BC060
19C060
18E060
18E060
187060
187860
183860
183C60
181C60
181E60
180E60
180760
1807E0
1803E0
1803E0
1801E0
1801E0
3C00E0
FF0060
ENDCHAR

STARTCHAR O
ENCODING 79
SWIDTH 800 0
DWIDTH 26 0
BBX 22 23 2 0
BITMAP
00FC00
07FF80
0F01C0
1C00E0
380070
780038
700038
F0003C
F0001C
E0001C
E0001C
E0001C
E0001C
E0001C
F0003C
F0003C
700038
780078
380070
1C00E0
0F03C0
03FF80
00FC00
ENDCHAR

STARTCHAR P
ENCODING 80
SWIDTH 620 0
DWIDTH 20 0
BBX 19 23 1 0
BITMAP
FFFC00
3FFF80
1C03C0
1C01E0
1C01E0
1C00E0
1C00E0
1C00E0
1C01E0
1C01C0
1C03C0
1FFF80
1FFC00
1C0000
1C0000
1C0000
1C0000
1C0000
1C0000
1C0000
1C0000
3E0000
FF8000
ENDCHAR

STARTCHAR Q
ENCODING 81
SWIDTH 820 0
DWIDTH 27 0
BBX 23 29 2 -6
BITMAP
007E00
03FFC0
0F01E0
1E0070
3C0038
78003C
70001C
70001E
F0001E
F0000E
E0000E
E0000E
E0000E
E0000E
F0001E
F0001E
70001C
78003C
380038
1C0078
0E00F0
0783C0
01FF00
003800
003800
003C00
001E1C
001FF8
0007E0
ENDCHAR

STARTCHAR R
ENCODING 82
SWIDTH 720 0
DWIDTH 24 0
BBX 22 23 1 0
BITMAP
FFFF00
7FFFC0
1C01E0
1C00F0
1C0070
1C0070
1C0070
1C0070
1C00F0
1C01E0
1FFFC0
1FFE00
1C7800
1C3C00
1C1C00
1C0E00
1C0F00
1C0780
1C03C0
1C03C0
1C01E0
3E00F0
FF807C
ENDCHAR

STARTCHAR S
ENCODING 83
SWIDTH 660 0
DWIDTH 22 0
BBX 18 23 2 0
BITMAP
07E200
1FFB00
381F00
700F00
E00700
E00380
E00180
F00080
7C0000
3F8000
1FF800
07FE00
00FF00
000F80
8003C0
C001C0
C001C0
E001C0
F00180
F80380
6E0F00
67FE00
41F000
ENDCHAR

STARTCHAR T
ENCODING 84
SWIDTH 620 0
DWIDTH 20 0
BBX 21 24 0 0
BITMAP
200060
3FFFE0
3FFFE0
787070
607030
607018
C07018
407008
007000
007000
007000
007000
007000
007000
007000
007000
007000
007000
007000
007000
007000
007000
03FE00
03FE00
ENDCHAR

STARTCHAR U
ENCODING 85
SWIDTH 780 0
DWIDTH 26 0
BBX 24 23 1 0
BITMAP
FF80FF
3E003C
1C0018
1C0018
1C0018
1C0018
1C0018
1C0018
1C0018
1C0018
1C0018
1C0018
1C0018
1C0018
1C0018
1C0018
1C0018
1E0030
0E0030
0F0060
07C1E0
01FF80
007E00
ENDCHAR

STARTCHAR V
ENCODING 86
SWIDTH 700 0
DWIDTH 23 0
BBX 23 23 0 0
BITMAP
FF00FE
3C003C
3C0038
1C0030
1E0030
0E0060
0E0060
0F0060
0700C0
0780C0
0381C0
038180
03C180
01C300
01C300
00E300
00E600
00E600
007C00
007C00
007C00
003800
003800
ENDCHAR

STARTCHAR W
ENCODING 87
SWIDTH 960 0
DWIDTH 32 0
BBX 31 23 0 0
BITMAP
FF9FE0FE
3C07801C
1C038018
1C038018
1E03C030
0E01C030
0E01C030
0F03E060
0703E060
07036060
0706E0C0
038670C0
038670C0
03847080
01CC3980
01CC3980
01C83980
01F83F00
00F81F00
00F81F00
00F01E00
00700E00
00700E00
ENDCHAR

STARTCHAR X
ENCODING 88
SWIDTH 720 0
DWIDTH 24 0
BBX 24 23 0 0
BITMAP
7FC0FE
1F0038
0F0070
070060
0780C0
03C180
01E380
00E700
00F600
007800
003C00
003C00
007E00
006F00
00C700
018780
0383C0
0701E0
0600E0
0C00F0
180078
38007C
FE01FF
ENDCHAR

STARTCHAR Y
ENCODING 89
SWIDTH 640 0
DWIDTH 21 0
BBX 21 23 0 0
BITMAP
FF83F8
3C00E0
1C00C0
1E00C0
0E0180
0F0380
070300
078700
038600
03CC00
01CC00
00F800
00F800
007000
007000
007000
007000
007000
007000
007000
007000
00F800
03FE00
ENDCHAR

STARTCHAR Z
ENCODING 90
SWIDTH 640 0
DWIDTH 21 0
BBX 20 23 1 0
BITMAP
1FFFE0
3FFFE0
3C03C0
700780
600700
C00F00
401E00
003C00
003800
007800
00F000
01E000
01C000
03C000
078000
0F0020
0E0030
1E0060
3C00E0
7801C0
7007C0
FFFFC0
FFFF80
ENDCHAR

STARTCHAR bracketleft
ENCODING 91
SWIDTH 300 0
DWIDTH 10 0
BBX 5 32 4 -8
BITMAP
F8
F8
C0
C0
C0
C0
C0
C0
C0
C0
C0
C0
C0
C0
C0
C0
C0
C0
C0
C0
C0
C0
C0
C0
C0
C0
C0
C0
C0
C0
F8
F8
ENDCHAR

STARTCHAR backslash
ENCODING 92
SWIDTH 600 0
DWIDTH 20 0
BBX 13 31 4 -7
BITMAP
C000
E000
6000
6000
7000
3000
3000
3800
1800
1C00
1C00
0C00
0E00
0E00
0600
0700
0300
0300
0380
0180
0180
01C0
00C0
00C0
00E0
0060
0060
0070
0030
0038
0038
ENDCHAR

STARTCHAR bracketright
ENCODING 93
SWIDTH 300 0
DWIDTH 10 0
BBX 5 32 1 -8
BITMAP
F8
F8
18
18
18
18
18
18
18
18
18
18
18
18
18
18
18
18
18
18
18
18
18
18
18
18
18
18
18
18
F8
F8
ENDCHAR

STARTCHAR asciicircum
ENCODING 94
SWIDTH 600 0
DWIDTH 20 0
BBX 16 13 2 10
BITMAP
0180
03C0
03C0
06E0
0E60
0C70
1C30
1818
381C
300C
700E
6006
C007
ENDCHAR

STARTCHAR underscore
ENCODING 95
SWIDTH 500 0
DWIDTH 17 0
BBX 17 2 0 -4
BITMAP
FFFF80
FFFF80
ENDCHAR

STARTCHAR quoteleft
ENCODING 96
SWIDTH 220 0
DWIDTH 7 0
BBX 5 10 1 14
BITMAP
08
18
30
60
40
C0
F0
F8
78
30
ENDCHAR

STARTCHAR a
ENCODING 97
SWIDTH 580 0
DWIDTH 19 0
BBX 18 16 1 0
BITMAP
07C000
1FF000
383800
701C00
701C00
701C00
001C00
03FC00
1F1C00
781C00
E01C00
E01C00
E03C00
F0FC00
7FCE40
1F07C0
ENDCHAR

STARTCHAR b
ENCODING 98
SWIDTH 620 0
DWIDTH 20 0
BBX 18 24 1 0
BITMAP
0C0000
3C0000
FC0000
1C0000
1C0000
1C0000
1C0000
1C0000
1C7C00
1DFF00
1F0700
1C0380
1C03C0
1C01C0
1C01C0
1C01C0
1C01C0
1C01C0
1C01C0
1C0380
1E0380
1B0F00
19FE00
187800
ENDCHAR

STARTCHAR c
ENCODING 99
SWIDTH 520 0
DWIDTH 17 0
BBX 15 16 1 0
BITMAP
03E0
1FF8
3C3C
701E
700E
E004
E000
E000
E000
E000
E000
7002
7806
3C1C
1FF0
07C0
ENDCHAR

STARTCHAR d
ENCODING 100
SWIDTH 620 0
DWIDTH 20 0
BBX 19 24 1 0
BITMAP
000300
000F00
003F00
000700
000700
000700
000700
000700
07C700
1FF700
3C1F00
780F00
700700
F00700
E00700
E00700
E00700
E00700
F00700
700700
780F00
3C3B00
1FF7E0
0787E0
ENDCHAR

STARTCHAR e
ENCODING 101
SWIDTH 520 0
DWIDTH 17 0
BBX 15 16 1 0
BITMAP
07C0
1FF0
3838
701C
701C
E01C
FFFE
E000
E000
E000
E000
7000
780E
3C1C
1FF0
07C0
ENDCHAR

STARTCHAR f
ENCODING 102
SWIDTH 320 0
DWIDTH 11 0
BBX 13 24 1 0
BITMAP
01E0
07F8
0C78
0C30
1C00
1C00
1C00
1C00
FF80
FF80
1C00
1C00
1C00
1C00
1C00
1C00
1C00
1C00
1C00
1C00
1C00
1C00
1C00
FF80
ENDCHAR

STARTCHAR g
ENCODING 103
SWIDTH 540 0
DWIDTH 18 0
BBX 17 23 1 -7
BITMAP
03E180
1FFF80
381C00
380E00
700E00
700E00
700E00
381C00
0C3C00
1FF000
33C000
600000
700000
7FC000
0FFE00
18FF00
300780
600180
E00180
E00380
700700
3FFE00
07E000
ENDCHAR

STARTCHAR h
ENCODING 104
SWIDTH 660 0
DWIDTH 22 0
BBX 21 24 1 0
BITMAP
0C0000
7C0000
FC0000
1C0000
1C0000
1C0000
1C0000
1C0000
1C3E00
1CFF80
1D8380
1E01C0
1C01C0
1C01C0
1C01C0
1C01C0
1C01C0
1C01C0
1C01C0
1C01C0
1C01C0
1C01C0
3C03E0
FF8FF8
ENDCHAR

STARTCHAR i
ENCODING 105
SWIDTH 300 0
DWIDTH 10 0
BBX 9 23 1 0
BITMAP
1800
3C00
3C00
1800
0000
0000
0000
0C00
7C00
FC00
1C00
1C00
1C00
1C00
1C00
1C00
1C00
1C00
1C00
1C00
1C00
1C00
FF80
ENDCHAR

STARTCHAR j
ENCODING 106
SWIDTH 300 0
DWIDTH 10 0
BBX 10 31 -3 -8
BITMAP
0180
03C0
03C0
0180
0000
0000
0000
00C0
03C0
0FC0
01C0
01C0
01C0
01C0
01C0
01C0
01C0
01C0
01C0
01C0
01C0
01C0
01C0
01C0
01C0
01C0
01C0
6180
F380
7F00
3C00
ENDCHAR

STARTCHAR k
ENCODING 107
SWIDTH 620 0
DWIDTH 20 0
BBX 20 24 1 0
BITMAP
1C0000
FC0000
1C0000
1C0000
1C0000
1C0000
1C0000
1C0000
1C1FE0
1C0780
1C0600
1C1C00
1C3800
1C7000
1CE000
1DE000
1F7000
1E3800
1C1C00
1C1E00
1C0F00
1C0780
3E07C0
FF9FF0
ENDCHAR

STARTCHAR l
ENCODING 108
SWIDTH 300 0
DWIDTH 10 0
BBX 9 23 1 0
BITMAP
3C00
FC00
1C00
1C00
1C00
1C00
1C00
1C00
1C00
1C00
1C00
1C00
1C00
1C00
1C00
1C00
1C00
1C00
1C00
1C00
1C00
3E00
FF80
ENDCHAR

STARTCHAR m
ENCODING 109
SWIDTH 940 0
DWIDTH 31 0
BBX 29 16 1 0
BITMAP
187C1F00
F9FE7F80
FB8F63C0
1E0781C0
1C0701C0
1C0701C0
1C0701C0
1C0701C0
1C0701C0
1C0701C0
1C0701C0
1C0701C0
1C0701C0
1C0701C0
3C0F03E0
FF1FC7F8
ENDCHAR

STARTCHAR n
ENCODING 110
SWIDTH 660 0
DWIDTH 22 0
BBX 20 16 2 0
BITMAP
187C00
F9FF00
FB0700
3C0380
380380
380380
380380
380380
380380
380380
380380
380380
380380
380380
7C07C0
FF1FF0
ENDCHAR

STARTCHAR o
ENCODING 111
SWIDTH 560 0
DWIDTH 18 0
BBX 16 16 1 0
BITMAP
03C0
1FF8
381C
700E
700E
E007
E007
E007
E007
E007
E007
700E
700E
381C
1FF8
03C0
ENDCHAR

STARTCHAR p
ENCODING 112
SWIDTH 620 0
DWIDTH 20 0
BBX 18 23 1 -7
BITMAP
0C7C00
FDFF00
FD8780
1E0380
1C03C0
1C01C0
1C01C0
1C01C0
1C01C0
1C01C0
1C01C0
1C0380
1E0380
1F0F00
1DFE00
1C7800
1C0000
1C0000
1C0000
1C0000
1C0000
1C0000
FF8000
ENDCHAR

STARTCHAR q
ENCODING 113
SWIDTH 580 0
DWIDTH 19 0
BBX 18 23 1 -7
BITMAP
07C600
1FE600
3C3E00
701E00
700E00
E00E00
E00E00
E00E00
E00E00
E00E00
E00E00
700E00
700E00
3C3E00
1FEE00
0F8E00
000E00
000E00
000E00
000E00
000E00
001F00
003FC0
ENDCHAR

STARTCHAR r
ENCODING 114
SWIDTH 440 0
DWIDTH 15 0
BBX 13 16 2 0
BITMAP
18F8
F9F8
3F70
3C00
3800
3800
3800
3800
3800
3800
3800
3800
3800
3800
7C00
FF00
ENDCHAR

STARTCHAR s
ENCODING 115
SWIDTH 520 0
DWIDTH 17 0
BBX 14 16 2 0
BITMAP
0F30
3FF0
6070
E030
E018
F810
7E00
1FE0
07F0
00F8
C03C
C01C
E01C
7838
6FF0
63C0
ENDCHAR

STARTCHAR t
ENCODING 116
SWIDTH 380 0
DWIDTH 13 0
BBX 11 21 1 0
BITMAP
0400
0C00
0C00
1C00
3C00
FFE0
FFE0
1C00
1C00
1C00
1C00
1C00
1C00
1C00
1C00
1C00
1C00
1C00
1C20
0FE0
0780
ENDCHAR

STARTCHAR u
ENCODING 117
SWIDTH 680 0
DWIDTH 22 0
BBX 20 16 1 0
BITMAP
3C03C0
FC0FC0
1C01C0
1C01C0
1C01C0
1C01C0
1C01C0
1C01C0
1C01C0
1C01C0
1C01C0
1C01C0
1C03C0
0E1DC0
0FF9F0
03E1F0
ENDCHAR

STARTCHAR v
ENCODING 118
SWIDTH 520 0
DWIDTH 17 0
BBX 17 16 0 0
BITMAP
FE1F80
780700
380600
1C0600
1C0C00
1C0C00
0E0800
0E1800
071800
073000
073000
03A000
03E000
01C000
01C000
01C000
ENDCHAR

STARTCHAR w
ENCODING 119
SWIDTH 780 0
DWIDTH 26 0
BBX 26 16 0 0
BITMAP
FF3F8FC0
3C1E0380
3C0E0300
1C0E0300
1C0F0600
0E0F0600
0E0B0400
0E1B8C00
07138C00
07338800
0331D800
03A1D800
03E0F000
01C0F000
01C0E000
00C06000
ENDCHAR

STARTCHAR x
ENCODING 120
SWIDTH 560 0
DWIDTH 18 0
BBX 19 16 0 0
BITMAP
7F9FC0
3E0780
1E0600
0F0C00
071800
03B000
01E000
00E000
01F000
037800
033C00
061C00
0C0E00
180700
780F80
FE1FE0
ENDCHAR

STARTCHAR y
ENCODING 121
SWIDTH 540 0
DWIDTH 18 0
BBX 19 23 -1 -7
BITMAP
7F8FE0
3C0380
1C0300
0E0300
0E0200
070600
070600
070C00
038C00
038800
01D800
01D000
00F000
00F000
006000
006000
004000
00C000
008000
618000
F30000
7E0000
3C0000
ENDCHAR

STARTCHAR z
ENCODING 122
SWIDTH 480 0
DWIDTH 16 0
BBX 15 16 1 0
BITMAP
3FFC
3FFC
7038
6070
C0F0
41E0
03C0
0780
0700
0E00
1C06
3C0C
780C
E03C
FFF8
FFF8
ENDCHAR

STARTCHAR braceleft
ENCODING 123
SWIDTH 280 0
DWIDTH 9 0
BBX 9 30 1 -7
BITMAP
0180
0600
0C00
0800
1800
1800
1C00
1C00
1C00
0C00
0C00
0C00
0800
1000
E000
6000
1000
1800
0C00
0C00
1C00
1C00
1C00
1C00
1C00
1800
0800
0C00
0600
0180
ENDCHAR

STARTCHAR bar
ENCODING 124
SWIDTH 600 0
DWIDTH 20 0
BBX 2 31 9 -7
BITMAP
C0
C0
C0
C0
C0
C0
C0
C0
C0
C0
C0
C0
C0
C0
C0
C0
C0
C0
C0
C0
C0
C0
C0
C0
C0
C0
C0
C0
C0
C0
C0
ENDCHAR

STARTCHAR braceright
ENCODING 125
SWIDTH 280 0
DWIDTH 9 0
BBX 9 30 0 -7
BITMAP
C000
3000
1800
0C00
0C00
0C00
1C00
1C00
1C00
1C00
1800
1800
0C00
0400
0380
0300
0400
0C00
1800
1800
1800
1C00
1C00
1C00
0C00
0C00
0C00
1800
3000
C000
ENDCHAR

STARTCHAR asciitilde
ENCODING 126
SWIDTH 600 0
DWIDTH 20 0
BBX 14 6 3 8
BITMAP
0004
3C0C
7F1C
C3F8
C0F0
4000
ENDCHAR

STARTCHAR space
ENCODING 160
SWIDTH 320 0
DWIDTH 12 0
BBX 0 0 0 0
BITMAP
ENDCHAR

STARTCHAR Aogonek
ENCODING 161
SWIDTH 680 0
DWIDTH 22 0
BBX 22 27 0 -4
BITMAP
003800
007800
007C00
006C00
00DC00
00DE00
00CE00
018E00
018700
010700
030700
030380
060380
07FFC0
07FFC0
0C01C0
0C01E0
0C00E0
1800E0
1800F0
380070
FE03FC
FE03BC
000040
0000C0
0000CC
000078
ENDCHAR

STARTCHAR breve
ENCODING 162
SWIDTH 460 0
DWIDTH 15 0
BBX 11 4 2 19
BITMAP
C020
60E0
7FC0
1F00
ENDCHAR

STARTCHAR Lslash
ENCODING 163
SWIDTH 600 0
DWIDTH 20 0
BBX 19 23 1 0
BITMAP
FF8000
3E0000
1C0000
1C0000
1C1000
1C3000
1C7000
1CC000
1D8000
1F0000
1E0000
1C0000
3C0000
7C0000
DC0000
9C0040
1C0060
1C00C0
1C01C0
1C0380
1C0F80
FFFF80
FFFF00
ENDCHAR

STARTCHAR currency
ENCODING 164
SWIDTH 600 0
DWIDTH 20 0
BBX 17 17 1 3
BITMAP
200100
E3E380
7FFF00
3C1E00
380E00
300600
600300
600300
600300
600300
700300
300600
380E00
3C1E00
FFFB80
63E300
200100
ENDCHAR

STARTCHAR Lcaron
ENCODING 165
SWIDTH 600 0
DWIDTH 20 0
BBX 18 23 2 0
BITMAP
FF9800
3E1C00
1C1E00
1C1E00
1C0600
1C0400
1C0C00
1C1800
1C3000
1C1000
1C0000
1C0000
1C0000
1C0000
1C0000
1C0040
1C00C0
1C00C0
1C0180
1C0380
1C0F80
FFFF00
FFFF00
ENDCHAR

STARTCHAR Sacute
ENCODING 166
SWIDTH 660 0
DWIDTH 22 0
BBX 18 29 2 0
BITMAP
002000
00F000
01F000
078000
000000
000000
07E200
1FFB00
381F00
700F00
E00700
E00380
E00180
F00080
7C0000
3F8000
1FF800
07FE00
00FF00
000F80
8003C0
C001C0
C001C0
E001C0
F00180
F80380
6E0F00
67FE00
41F000
ENDCHAR

STARTCHAR section
ENCODING 167
SWIDTH 520 0
DWIDTH 17 0
BBX 15 29 1 -6
BITMAP
07C0
3FF0
7038
603C
E01C
E01C
F000
7800
7F00
1FE0
37F8
607C
E01C
C01C
C00C
E00C
F00C
7E18
3FF0
0FF8
00FC
001C
C00E
E00E
E00E
E00C
7038
3FF0
07C0
ENDCHAR

STARTCHAR dieresis
ENCODING 168
SWIDTH 420 0
DWIDTH 14 0
BBX 9 4 2 18
BITMAP
6300
F780
F780
6300
ENDCHAR

STARTCHAR Scaron
ENCODING 169
SWIDTH 660 0
DWIDTH 22 0
BBX 18 28 2 0
BITMAP
0C1800
07F000
01E000
008000
000000
07E200
1FFB00
381F00
700F00
E00700
E00380
E00180
F00080
7C0000
3F8000
1FF800
07FE00
00FF00
000F80
8003C0
C001C0
C001C0
E001C0
F00180
F80380
6E0F00
67FE00
41F000
ENDCHAR

STARTCHAR Scommaaccent
ENCODING 170
SWIDTH 660 0
DWIDTH 22 0
BBX 18 30 2 -7
BITMAP
07C200
1FFB00
383F00
700F00
E00700
E00380
E00180
F00080
7C0000
3F8000
1FF800
07FE00
00FF00
000F80
8003C0
C001C0
C001C0
E001C0
F00180
F80380
6E0F00
6FFE00
41F000
000000
00C000
01E000
00E000
006000
004000
008000
ENDCHAR

STARTCHAR Tcaron
ENCODING 171
SWIDTH 620 0
DWIDTH 20 0
BBX 21 28 0 0
BITMAP
038E00
01FC00
007000
002000
200060
3FFFE0
3FFFE0
787070
607030
607018
C07018
407008
007000
007000
007000
007000
007000
007000
007000
007000
007000
007000
007000
007000
007000
007000
03FE00
03FE00
ENDCHAR

STARTCHAR Zacute
ENCODING 172
SWIDTH 640 0
DWIDTH 21 0
BBX 20 29 1 0
BITMAP
003800
007800
00F000
018000
000000
000000
1FFFE0
3FFFE0
3C03C0
700780
600700
C00F00
401E00
003C00
003800
007800
00F000
01E000
01C000
03C000
078000
0F0020
0E0030
1E0060
3C00E0
7801C0
7003C0
FFFFC0
FFFF80
ENDCHAR

STARTCHAR hyphen
ENCODING 173
SWIDTH 400 0
DWIDTH 13 0
BBX 9 2 2 7
BITMAP
FF80
FF80
ENDCHAR

STARTCHAR Zcaron
ENCODING 174
SWIDTH 640 0
DWIDTH 21 0
BBX 20 28 1 0
BITMAP
071E00
01F800
00E000
000000
000000
1FFFE0
3FFFE0
3C03C0
700780
600700
C00F00
401E00
003C00
003800
007800
00F000
01E000
01C000
03C000
078000
0F0020
0E0030
1E0060
3C00E0
7801C0
7003C0
FFFFC0
FFFF80
ENDCHAR

STARTCHAR Zdotaccent
ENCODING 175
SWIDTH 640 0
DWIDTH 21 0
BBX 20 28 1 0
BITMAP
006000
00F000
00F000
006000
000000
1FFFE0
3FFFE0
3C03C0
300780
600780
E00F00
401E00
003C00
003C00
007800
00F000
01E000
01E000
03C000
078000
0F0020
0F0030
1E0060
3C0060
7801E0
7003C0
FFFFC0
FFFFC0
ENDCHAR

STARTCHAR degree
ENCODING 176
SWIDTH 400 0
DWIDTH 13 0
BBX 9 9 2 14
BITMAP
1C00
7F00
6300
C180
C180
C180
6300
3F00
1C00
ENDCHAR

STARTCHAR aogonek
ENCODING 177
SWIDTH 580 0
DWIDTH 19 0
BBX 18 21 1 -5
BITMAP
07C000
1FF000
383800
701C00
701C00
701C00
001C00
03FC00
1F1C00
781C00
E01C00
E01C00
E03C00
F0EC00
7FCE40
1F03C0
000600
000400
000C40
000CC0
000700
ENDCHAR

STARTCHAR ogonek
ENCODING 178
SWIDTH 320 0
DWIDTH 11 0
BBX 6 5 2 -5
BITMAP
20
40
C0
CC
78
ENDCHAR

STARTCHAR lslash
ENCODING 179
SWIDTH 320 0
DWIDTH 11 0
BBX 9 23 1 0
BITMAP
3C00
FC00
1C00
1C00
1C00
1C00
1C00
1C80
1D80
1F00
1E00
1C00
3C00
6C00
DC00
9C00
1C00
1C00
1C00
1C00
1C00
3E00
FF80
ENDCHAR

STARTCHAR acute
ENCODING 180
SWIDTH 340 0
DWIDTH 11 0
BBX 7 4 2 19
BITMAP
04
1E
3E
E0
ENDCHAR

STARTCHAR lcaron
ENCODING 181
SWIDTH 357 0
DWIDTH 12 0
BBX 11 24 1 0
BITMAP
1DC0
FDE0
FDE0
1C60
1C40
1CC0
1D80
1D00
1C00
1C00
1C00
1C00
1C00
1C00
1C00
1C00
1C00
1C00
1C00
1C00
1C00
1C00
FF80
FF80
ENDCHAR

STARTCHAR sacute
ENCODING 182
SWIDTH 520 0
DWIDTH 17 0
BBX 14 23 2 0
BITMAP
0080
03C0
07C0
1E00
0000
0000
0000
0F30
3FF0
6070
E030
E018
F810
7E00
1FC0
07F0
00F8
C01C
C01C
E01C
7838
6FF0
63C0
ENDCHAR

STARTCHAR caron
ENCODING 183
SWIDTH 420 0
DWIDTH 14 0
BBX 10 4 2 18
BITMAP
E1C0
3F00
1E00
0400
ENDCHAR

STARTCHAR commaaccent
ENCODING 184
SWIDTH 333 0
DWIDTH 11 0
BBX 4 6 4 -7
BITMAP
E0
F0
F0
30
20
C0
ENDCHAR

STARTCHAR scaron
ENCODING 185
SWIDTH 520 0
DWIDTH 17 0
BBX 14 22 2 0
BITMAP
3070
1FC0
0780
0200
0000
0000
0F30
3FF0
6070
E030
E018
F810
7E00
1FC0
07F0
00F8
C01C
C01C
E01C
7838
6FF0
63C0
ENDCHAR

STARTCHAR scommaaccent
ENCODING 186
SWIDTH 520 0
DWIDTH 17 0
BBX 14 23 2 -7
BITMAP
0F30
3FD0
60F0
E030
E018
F810
7E00
1FC0
07F0
00F8
C03C
C01C
E01C
7838
6FF0
63C0
0000
0700
0780
0380
0180
0100
0600
ENDCHAR

STARTCHAR tcaron
ENCODING 187
SWIDTH 398 0
DWIDTH 13 0
BBX 11 24 1 0
BITMAP
00C0
00E0
00E0
0420
0C60
0CC0
1C80
3C00
FFC0
FFC0
1C00
1C00
1C00
1C00
1C00
1C00
1C00
1C00
1C00
1C00
1C00
1C20
0FE0
0780
ENDCHAR

STARTCHAR zacute
ENCODING 188
SWIDTH 480 0
DWIDTH 16 0
BBX 15 23 1 0
BITMAP
00C0
03C0
07C0
0C00
0000
0000
0000
3FFC
3FFC
7038
6070
C0F0
41E0
03C0
0780
0700
0E00
1C06
3C0C
780C
E03C
FFF8
FFF8
ENDCHAR

STARTCHAR hungarumlaut
ENCODING 189
SWIDTH 380 0
DWIDTH 13 0
BBX 8 5 3 18
BITMAP
33
33
66
46
84
ENDCHAR

STARTCHAR zcaron
ENCODING 190
SWIDTH 480 0
DWIDTH 16 0
BBX 15 22 1 0
BITMAP
3C70
0FC0
0380
0000
0000
0000
3FFC
3FFC
7038
6070
C0F0
41E0
03C0
0780
0700
0E00
1C06
3C0C
780C
E03C
FFF8
FFF8
ENDCHAR

STARTCHAR zdotaccent
ENCODING 191
SWIDTH 480 0
DWIDTH 16 0
BBX 16 22 0 0
BITMAP
0180
03C0
03C0
0180
0000
0000
1FFE
1FFE
381C
3038
6070
20F0
01E0
03C0
0380
0700
0E03
1C06
3C06
701C
FFFC
FFFC
ENDCHAR

STARTCHAR Racute
ENCODING 192
SWIDTH 720 0
DWIDTH 24 0
BBX 22 29 1 0
BITMAP
000C00
003E00
007C00
00C000
000000
000000
FFFF00
7FFFC0
1C01E0
1C00F0
1C0070
1C0070
1C0070
1C0070
1C00F0
1C01E0
1FFFC0
1FFE00
1C7800
1C3C00
1C1C00
1C0E00
1C0F00
1C0780
1C03C0
1C03C0
1C01E0
3E00F0
FF807C
ENDCHAR

STARTCHAR Aacute
ENCODING 193
SWIDTH 680 0
DWIDTH 22 0
BBX 22 29 0 0
BITMAP
000C00
003E00
007C00
00C000
000000
000000
003800
007800
007C00
005C00
00DC00
00DE00
008E00
018E00
018F00
010700
030700
030780
060380
07FF80
07FFC0
0C01C0
0C01E0
0C00E0
1800E0
1800F0
380070
7800F8
FE03FC
ENDCHAR

STARTCHAR Acircumflex
ENCODING 194
SWIDTH 680 0
DWIDTH 22 0
BBX 22 29 0 0
BITMAP
001000
007800
00FE00
018300
000000
000000
003800
007800
007C00
005C00
00DC00
00DE00
008E00
018E00
018F00
010700
030700
030780
060380
07FF80
07FFC0
0C01C0
0C01E0
0C00E0
1800E0
1800F0
380070
7800F8
FE03FC
ENDCHAR

STARTCHAR Abreve
ENCODING 195
SWIDTH 680 0
DWIDTH 22 0
BBX 22 29 0 0
BITMAP
020180
038700
01FE00
007C00
000000
000000
003800
007800
007C00
005C00
00DC00
00DE00
008E00
018E00
018F00
010700
030700
030780
060380
07FF80
07FFC0
0C01C0
0C01E0
0C00E0
1800E0
1800F0
380070
7800F8
FE03FC
ENDCHAR

STARTCHAR Adieresis
ENCODING 196
SWIDTH 680 0
DWIDTH 22 0
BBX 22 28 1 0
BITMAP
018C00
03DE00
03DE00
018C00
000000
007000
007000
00F800
00D800
00D800
019C00
019C00
019C00
030E00
030E00
030F00
060700
060700
07FF80
0FFF80
0C0380
1803C0
1801C0
1801C0
3001E0
3000E0
7001F0
FC03FC
ENDCHAR

STARTCHAR Lacute
ENCODING 197
SWIDTH 600 0
DWIDTH 20 0
BBX 19 29 1 0
BITMAP
003800
00F800
01E000
020000
000000
000000
FF8000
3E0000
1C0000
1C0000
1C0000
1C0000
1C0000
1C0000
1C0000
1C0000
1C0000
1C0000
1C0000
1C0000
1C0000
1C0040
1C0060
1C00C0
1C01C0
1C0380
1C0780
FFFF80
FFFF00
ENDCHAR

STARTCHAR Cacute
ENCODING 198
SWIDTH 740 0
DWIDTH 24 0
BBX 21 29 2 0
BITMAP
000800
003C00
007C00
01E000
000000
000000
00FC60
03FF60
0F03E0
1E00F0
3C0070
780030
700030
F00018
F00000
E00000
E00000
E00000
E00000
F00000
F00000
F00000
780008
780018
3C0030
1E0070
0F83C0
07FF80
00FC00
ENDCHAR

STARTCHAR Ccedilla
ENCODING 199
SWIDTH 740 0
DWIDTH 24 0
BBX 22 29 2 -6
BITMAP
00FC20
03FFA0
0F81F0
1E00F0
3C0070
780038
700018
700018
F00000
E00000
E00000
E00000
E00000
F00000
F00000
F00000
780008
78000C
3C0038
1E0070
0F81E0
07FF80
00FE00
004000
007800
000C00
008C00
018800
00F800
ENDCHAR

STARTCHAR Ccaron
ENCODING 200
SWIDTH 740 0
DWIDTH 24 0
BBX 21 28 2 0
BITMAP
030600
01FC00
00F800
002000
000000
00FC60
03FF60
0F03E0
1E00F0
3C0070
780030
700030
F00018
F00000
E00000
E00000
E00000
E00000
F00000
F00000
F00000
780008
780018
3C0030
1E0070
0F83C0
07FF80
00FC00
ENDCHAR

STARTCHAR Eacute
ENCODING 201
SWIDTH 720 0
DWIDTH 24 0
BBX 22 29 1 0
BITMAP
001C00
003C00
007800
00C000
000000
000000
FFFFE0
7FFFE0
1C00E0
1C0070
1C0030
1C0018
1C0C10
1C0C00
1C0C00
1C1C00
1FFC00
1FFC00
1C1C00
1C0C00
1C0C00
1C0C0C
1C0018
1C0018
1C0038
1C0070
1C01F0
FFFFF0
FFFFE0
ENDCHAR

STARTCHAR Eogonek
ENCODING 202
SWIDTH 720 0
DWIDTH 24 0
BBX 22 27 1 -4
BITMAP
FFFFE0
7FFFE0
1C00E0
1C0070
1C0030
1C0018
1C0C10
1C0C00
1C0C00
1C1C00
1FFC00
1FFC00
1C1C00
1C0C00
1C0C00
1C0C0C
1C000C
1C0018
1C0018
1C0078
1C00F0
FFFFF0
FFFEF0
000100
000300
000330
0001E0
ENDCHAR

STARTCHAR Edieresis
ENCODING 203
SWIDTH 720 0
DWIDTH 24 0
BBX 22 28 1 0
BITMAP
018600
03CF00
03CF00
018600
000000
FFFFE0
7FFFE0
1C00E0
1C0070
1C0030
1C0018
1C0C10
1C0C00
1C0C00
1C1C00
1FFC00
1FFC00
1C1C00
1C0C00
1C0C00
1C0C0C
1C0018
1C0018
1C0038
1C0070
1C01F0
FFFFF0
FFFFE0
ENDCHAR

STARTCHAR Ecaron
ENCODING 204
SWIDTH 720 0
DWIDTH 24 0
BBX 22 28 1 0
BITMAP
038F00
00FC00
007000
000000
000000
FFFFE0
7FFFE0
1C00E0
1C0070
1C0030
1C0018
1C0C10
1C0C00
1C0C00
1C1C00
1FFC00
1FFC00
1C1C00
1C0C00
1C0C00
1C0C0C
1C0018
1C0018
1C0038
1C0070
1C01F0
FFFFF0
FFFFE0
ENDCHAR

STARTCHAR Iacute
ENCODING 205
SWIDTH 340 0
DWIDTH 11 0
BBX 9 29 1 0
BITMAP
0700
1F00
3C00
4000
0000
0000
FF80
3E00
1C00
1C00
1C00
1C00
1C00
1C00
1C00
1C00
1C00
1C00
1C00
1C00
1C00
1C00
1C00
1C00
1C00
1C00
1C00
3E00
FF80
ENDCHAR

STARTCHAR Icircumflex
ENCODING 206
SWIDTH 340 0
DWIDTH 11 0
BBX 9 29 1 0
BITMAP
1C00
3E00
F780
8080
0000
0000
FF80
3E00
1C00
1C00
1C00
1C00
1C00
1C00
1C00
1C00
1C00
1C00
1C00
1C00
1C00
1C00
1C00
1C00
1C00
1C00
1C00
3E00
FF80
ENDCHAR

STARTCHAR Dcaron
ENCODING 207
SWIDTH 800 0
DWIDTH 26 0
BBX 23 28 1 0
BITMAP
01C700
007E00
003800
000000
000000
FFFE00
3FFFC0
1C01E0
1C00F0
1C0078
1C003C
1C001C
1C001E
1C001E
1C000E
1C000E
1C000E
1C000E
1C000E
1C001E
1C001E
1C001C
1C003C
1C0038
1C0078
1C01F0
FFFFC0
FFFE00
ENDCHAR

STARTCHAR Dcroat
ENCODING 208
SWIDTH 800 0
DWIDTH 26 0
BBX 23 23 1 0
BITMAP
FFFE00
3FFFC0
1C01E0
1C00F0
1C0038
1C003C
1C001C
1C001E
1C000E
1C000E
FFF80E
FFF80E
1C000E
1C000E
1C001E
1C001E
1C001C
1C003C
1C0078
1C00F0
1C01E0
FFFFC0
FFFE00
ENDCHAR

STARTCHAR Nacute
ENCODING 209
SWIDTH 740 0
DWIDTH 24 0
BBX 22 29 1 0
BITMAP
001C00
003C00
00F800
008000
000000
000000
FE03FC
3F00F0
1B8060
1B8060
1BC060
19C060
18E060
18E060
187060
187860
183860
183C60
181C60
181E60
180E60
180760
1807E0
1803E0
1803E0
1801E0
1801E0
3C00E0
FF0060
ENDCHAR

STARTCHAR Ncaron
ENCODING 210
SWIDTH 740 0
DWIDTH 24 0
BBX 22 29 1 0
BITMAP
020300
01CE00
00FC00
003000
000000
000000
FE03FC
3F00F0
1B8060
1B8060
1BC060
19C060
18E060
18E060
187060
187860
183860
183C60
181C60
181E60
180E60
180760
1807E0
1803E0
1803E0
1801E0
1801E0
3C00E0
FF0060
ENDCHAR

STARTCHAR Oacute
ENCODING 211
SWIDTH 800 0
DWIDTH 26 0
BBX 22 29 2 0
BITMAP
000800
001C00
007C00
00F000
000000
000000
00FC00
03FF80
0F01C0
1C00E0
380070
780038
700038
F0003C
F0001C
E0001C
E0001C
E0001C
E0001C
E0001C
F0003C
F0003C
700038
780078
380070
1C00E0
0F03C0
03FF80
00FC00
ENDCHAR

STARTCHAR Ocircumflex
ENCODING 212
SWIDTH 800 0
DWIDTH 26 0
BBX 22 28 2 0
BITMAP
007000
00FC00
038700
000000
000000
00FC00
03FF80
0F01C0
1C00E0
380070
780038
700038
F0003C
F0001C
E0001C
E0001C
E0001C
E0001C
E0001C
F0003C
F0003C
700038
780078
380070
1C00E0
0F03C0
03FF80
00FC00
ENDCHAR

STARTCHAR Ohungarumlaut
ENCODING 213
SWIDTH 800 0
DWIDTH 26 0
BBX 22 29 2 0
BITMAP
003300
007300
006600
004400
008800
000000
00FC00
03FF80
0F01C0
1C00E0
380070
780038
700038
F0003C
F0001C
E0001C
E0001C
E0001C
E0001C
E0001C
F0003C
F0003C
700038
780078
380070
1C00E0
0F03C0
03FF80
00FC00
ENDCHAR

STARTCHAR Odieresis
ENCODING 214
SWIDTH 800 0
DWIDTH 26 0
BBX 23 28 2 0
BITMAP
00C600
01EF00
01EF00
00C600
000000
00FE00
03FF80
0F01E0
1E0070
3C0038
78003C
70001C
F0001E
F0001E
F0000E
E0000E
E0000E
E0000E
F0001E
F0001E
70001E
70001C
78003C
3C0078
1E00F0
0F01E0
03FF80
007C00
ENDCHAR

STARTCHAR multiply
ENCODING 215
SWIDTH 600 0
DWIDTH 20 0
BBX 14 14 3 4
BITMAP
4008
E01C
7038
3870
1CE0
0FC0
0700
0780
0EC0
1CE0
3870
F03C
6018
2008
ENDCHAR

STARTCHAR Rcaron
ENCODING 216
SWIDTH 720 0
DWIDTH 24 0
BBX 22 28 1 0
BITMAP
01C700
00FC00
003800
000000
000000
FFFF00
7FFFC0
1C01E0
1C00F0
1C0070
1C0070
1C0070
1C0070
1C00F0
1C01E0
1FFFC0
1FFE00
1C7800
1C3C00
1C1C00
1C0E00
1C0F00
1C0780
1C03C0
1C03C0
1C01E0
3E00F0
FF807C
ENDCHAR

STARTCHAR Uring
ENCODING 217
SWIDTH 780 0
DWIDTH 26 0
BBX 24 31 1 0
BITMAP
003C00
006600
004200
004200
006600
003C00
000000
000000
FF80FF
3E003C
1C0018
1C0018
1C0018
1C0018
1C0018
1C0018
1C0018
1C0018
1C0018
1C0018
1C0018
1C0018
1C0018
1C0018
1C0018
1E0038
0E0030
0F0070
07C1E0
01FF80
007E00
ENDCHAR

STARTCHAR Uacute
ENCODING 218
SWIDTH 780 0
DWIDTH 26 0
BBX 24 29 1 0
BITMAP
000E00
001E00
007C00
004000
000000
000000
FF80FF
3E003C
1C0018
1C0018
1C0018
1C0018
1C0018
1C0018
1C0018
1C0018
1C0018
1C0018
1C0018
1C0018
1C0018
1C0018
1C0018
1E0038
0E0030
0F0060
07C1E0
01FF80
007E00
ENDCHAR

STARTCHAR Uhungarumlaut
ENCODING 219
SWIDTH 780 0
DWIDTH 26 0
BBX 24 30 1 0
BITMAP
001080
003980
003300
002300
004600
004400
000000
FF80FF
3E003C
1C0018
1C0018
1C0018
1C0018
1C0018
1C0018
1C0018
1C0018
1C0018
1C0018
1C0018
1C0018
1C0018
1C0018
1C0018
1E0038
0E0030
0F0060
07C1E0
01FF80
007E00
ENDCHAR

STARTCHAR Udieresis
ENCODING 220
SWIDTH 780 0
DWIDTH 26 0
BBX 23 29 1 0
BITMAP
00C600
01EF00
01EF00
00C600
000000
000000
FF81FE
3E0078
1C0030
1C0030
1C0030
1C0030
1C0030
1C0030
1C0030
1C0030
1C0030
1C0030
1C0030
1C0030
1C0030
1C0030
1C0030
1E0070
0E0060
0F00E0
07C3C0
03FF80
00FE00
ENDCHAR

STARTCHAR Yacute
ENCODING 221
SWIDTH 640 0
DWIDTH 21 0
BBX 21 29 0 0
BITMAP
001C00
007C00
00F000
010000
000000
000000
FF83F8
3C00E0
1C00C0
1E00C0
0E0180
0F0380
070300
078700
038600
03CC00
01CC00
00F800
00F800
007000
007000
007000
007000
007000
007000
007000
007000
00F800
03FE00
ENDCHAR

STARTCHAR Tcommaaccent
ENCODING 222
SWIDTH 620 0
DWIDTH 20 0
BBX 21 32 0 -8
BITMAP
200060
3FFFE0
3FFFE0
787070
607030
607038
C07018
407010
007000
007000
007000
007000
007000
007000
007000
007000
007000
007000
007000
007000
007000
007000
00F800
03FE00
000000
000000
006000
007000
007000
001000
003000
006000
ENDCHAR

STARTCHAR germandbls
ENCODING 223
SWIDTH 660 0
DWIDTH 22 0
BBX 19 24 1 0
BITMAP
00F000
03FC00
060E00
0C0700
0C0700
1C0700
1C3E00
1C6000
FCC000
FCC000
1CE000
1CF800
1C7E00
1C1F80
1C07C0
1C01E0
1C00E0
1C0060
1C0060
1D8060
1DC0C0
1DC1C0
1CFF00
FC3C00
ENDCHAR

STARTCHAR racute
ENCODING 224
SWIDTH 440 0
DWIDTH 15 0
BBX 13 23 2 0
BITMAP
0380
0780
0F00
1800
0000
0000
0000
18F8
F9F8
3E70
3C00
3800
3800
3800
3800
3800
3800
3800
3800
3800
3800
7C00
FF00
ENDCHAR

STARTCHAR aacute
ENCODING 225
SWIDTH 580 0
DWIDTH 19 0
BBX 18 23 1 0
BITMAP
002000
00F000
01F000
038000
000000
000000
000000
07C000
1FF000
383800
701C00
701C00
701C00
001C00
03FC00
3F1C00
781C00
E01C00
E01C00
E03C00
F0FC00
7FCE40
1F07C0
ENDCHAR

STARTCHAR acircumflex
ENCODING 226
SWIDTH 580 0
DWIDTH 19 0
BBX 18 22 1 0
BITMAP
01C000
03F000
0E3800
000000
000000
000000
07C000
1FF000
383800
701C00
701C00
701C00
001C00
03FC00
3F1C00
781C00
E01C00
E01C00
E03C00
F0FC00
7FCE40
1F07C0
ENDCHAR

STARTCHAR abreve
ENCODING 227
SWIDTH 580 0
DWIDTH 19 0
BBX 18 23 1 0
BITMAP
080400
0E1C00
07F800
03E000
000000
000000
000000
07C000
1FF000
383800
701C00
701C00
701C00
001C00
03FC00
3F1C00
781C00
E01C00
E01C00
E03C00
F0FC00
7FCE40
1F07C0
ENDCHAR

STARTCHAR adieresis
ENCODING 228
SWIDTH 580 0
DWIDTH 19 0
BBX 18 22 2 0
BITMAP
063000
0F7800
0F7800
063000
000000
000000
07C000
1FF000
383800
701C00
701C00
701C00
001C00
07FC00
3F1C00
701C00
E01C00
E01C00
E03C00
F0FC00
7FCE40
1F07C0
ENDCHAR

STARTCHAR lacute
ENCODING 229
SWIDTH 300 0
DWIDTH 10 0
BBX 9 28 1 0
BITMAP
0700
0F00
3E00
6000
0000
3C00
FC00
1C00
1C00
1C00
1C00
1C00
1C00
1C00
1C00
1C00
1C00
1C00
1C00
1C00
1C00
1C00
1C00
1C00
1C00
1C00
1E00
FF80
ENDCHAR

STARTCHAR cacute
ENCODING 230
SWIDTH 520 0
DWIDTH 17 0
BBX 15 23 1 0
BITMAP
0040
01E0
03E0
0F00
0000
0000
0000
03E0
1FF8
3C3C
701E
700E
E004
E000
E000
E000
E000
F000
7002
7806
3C1C
1FF0
07C0
ENDCHAR

STARTCHAR ccedilla
ENCODING 231
SWIDTH 520 0
DWIDTH 17 0
BBX 15 22 2 -6
BITMAP
07C0
1FF0
3838
701C
701C
E008
E000
E000
E000
E000
E000
7006
700C
3C18
1FF0
03C0
0400
0780
00C0
08C0
0C80
0780
ENDCHAR

STARTCHAR ccaron
ENCODING 232
SWIDTH 520 0
DWIDTH 17 0
BBX 15 22 1 0
BITMAP
1830
0FE0
07C0
0100
0000
0000
03E0
1FF8
3C3C
701E
700E
E004
E000
E000
E000
E000
F000
7002
7806
3C1C
1FF0
07C0
ENDCHAR

STARTCHAR eacute
ENCODING 233
SWIDTH 520 0
DWIDTH 17 0
BBX 15 23 1 0
BITMAP
0040
01E0
03C0
0F00
0000
0000
0000
07C0
1FF0
3838
701C
701C
E00C
FFFE
E000
E000
E000
E000
7000
7006
3C1C
1FF0
07C0
ENDCHAR

STARTCHAR eogonek
ENCODING 234
SWIDTH 520 0
DWIDTH 17 0
BBX 14 20 2 -4
BITMAP
07C0
1FF0
3838
7018
601C
FFFC
FFFC
E000
E000
E000
E000
7004
700C
3838
1FF0
07C0
0200
0600
0660
03C0
ENDCHAR

STARTCHAR edieresis
ENCODING 235
SWIDTH 520 0
DWIDTH 17 0
BBX 15 22 1 0
BITMAP
0C60
1EF0
1EF0
0C60
0000
0000
07C0
1FF0
3838
701C
701C
E00C
FFFE
E000
E000
E000
E000
7000
7806
3C1C
1FF0
07C0
ENDCHAR

STARTCHAR ecaron
ENCODING 236
SWIDTH 520 0
DWIDTH 17 0
BBX 15 22 1 0
BITMAP
1030
0FE0
0780
0100
0000
0000
07C0
1FF0
3838
701C
701C
E01C
FFFE
E000
E000
E000
E000
7000
7006
3C1C
1FF0
07C0
ENDCHAR

STARTCHAR iacute
ENCODING 237
SWIDTH 300 0
DWIDTH 10 0
BBX 9 23 1 0
BITMAP
0200
0F00
1F00
7800
0000
0000
0000
0C00
7C00
FC00
1C00
1C00
1C00
1C00
1C00
1C00
1C00
1C00
1C00
1C00
1C00
1C00
FF80
ENDCHAR

STARTCHAR icircumflex
ENCODING 238
SWIDTH 300 0
DWIDTH 10 0
BBX 9 22 1 0
BITMAP
1C00
7F00
E380
0000
0000
0000
0C00
7C00
FC00
1C00
1C00
1C00
1C00
1C00
1C00
1C00
1C00
1C00
1C00
1C00
1C00
FF80
ENDCHAR

STARTCHAR dcaron
ENCODING 239
SWIDTH 667 0
DWIDTH 22 0
BBX 21 24 1 0
BITMAP
000770
003F78
003F78
000718
000710
000730
000720
000740
07C700
1FF700
3C1F00
780F00
700700
F00700
E00700
E00700
E00700
E00700
F00700
700700
780F00
3C3B00
1FE7E0
0787E0
ENDCHAR

STARTCHAR dcroat
ENCODING 240
SWIDTH 620 0
DWIDTH 20 0
BBX 18 24 2 0
BITMAP
000600
003E00
003E00
000E00
000E00
03FFC0
000E00
000E00
07CE00
1FEE00
3C3E00
700E00
700E00
E00E00
E00E00
E00E00
E00E00
E00E00
E00E00
700E00
701E00
3C7600
1FEFC0
0F8FC0
ENDCHAR

STARTCHAR nacute
ENCODING 241
SWIDTH 660 0
DWIDTH 22 0
BBX 20 23 2 0
BITMAP
003800
007800
01F000
038000
000000
000000
000000
187C00
F9FF00
FB0700
3C0380
380380
380380
380380
380380
380380
380380
380380
380380
380380
380380
7C07C0
FF1FF0
ENDCHAR

STARTCHAR ncaron
ENCODING 242
SWIDTH 660 0
DWIDTH 22 0
BBX 20 22 2 0
BITMAP
060C00
03F800
00E000
004000
000000
000000
187C00
F9FF00
FB0700
3C0380
380380
380380
380380
380380
380380
380380
380380
380380
380380
380380
7C07C0
FF1FF0
ENDCHAR

STARTCHAR oacute
ENCODING 243
SWIDTH 560 0
DWIDTH 18 0
BBX 16 23 1 0
BITMAP
0040
00E0
03E0
0700
0000
0000
0000
03C0
1FF8
381C
700E
700E
E007
E007
E007
E007
E007
E007
700E
700E
381C
1FF8
03C0
ENDCHAR

STARTCHAR ocircumflex
ENCODING 244
SWIDTH 560 0
DWIDTH 18 0
BBX 16 23 1 0
BITMAP
0080
03C0
07E0
1C38
0000
0000
0000
03C0
1FF8
381C
700E
700E
E007
E007
E007
E007
E007
E007
700E
700E
381C
1FF8
03C0
ENDCHAR

STARTCHAR ohungarumlaut
ENCODING 245
SWIDTH 560 0
DWIDTH 18 0
BBX 16 23 1 0
BITMAP
0198
0398
0330
0620
0460
0000
0000
03C0
1FF8
381C
700E
700E
E007
E007
E007
E007
E007
E007
700E
700E
381C
1FF8
03C0
ENDCHAR

STARTCHAR odieresis
ENCODING 246
SWIDTH 560 0
DWIDTH 18 0
BBX 16 22 1 0
BITMAP
0C30
1E78
1E78
0C30
0000
0000
03E0
1FF8
381C
700E
700E
E007
E007
E007
E007
E007
E007
700E
700E
381C
1FF8
03C0
ENDCHAR

STARTCHAR divide
ENCODING 247
SWIDTH 600 0
DWIDTH 20 0
BBX 15 14 2 4
BITMAP
0380
0380
0380
0000
0000
0000
FFFE
FFFE
0000
0000
0000
0380
0380
0380
ENDCHAR

STARTCHAR rcaron
ENCODING 248
SWIDTH 440 0
DWIDTH 15 0
BBX 13 22 2 0
BITMAP
71E0
1F80
0600
0000
0000
0000
18F8
F9F8
3E70
3C00
3800
3800
3800
3800
3800
3800
3800
3800
3800
3800
7C00
FF00
ENDCHAR

STARTCHAR uring
ENCODING 249
SWIDTH 680 0
DWIDTH 22 0
BBX 20 24 1 0
BITMAP
00F000
019800
010800
010800
019800
00F000
000000
000000
3C03C0
FC0FC0
1C01C0
1C01C0
1C01C0
1C01C0
1C01C0
1C01C0
1C01C0
1C01C0
1C01C0
1C01C0
1C03C0
0E1DC0
0FF9F0
03E1F0
ENDCHAR

STARTCHAR uacute
ENCODING 250
SWIDTH 680 0
DWIDTH 22 0
BBX 20 23 1 0
BITMAP
001000
003800
00F800
01C000
000000
000000
000000
3C03C0
FC0FC0
1C01C0
1C01C0
1C01C0
1C01C0
1C01C0
1C01C0
1C01C0
1C01C0
1C01C0
1C01C0
1C03C0
0E1DC0
0FF9F0
03E1F0
ENDCHAR

STARTCHAR uhungarumlaut
ENCODING 251
SWIDTH 680 0
DWIDTH 22 0
BBX 20 23 1 0
BITMAP
006600
006600
00CC00
008800
011000
000000
000000
3C03C0
FC0FC0
1C01C0
1C01C0
1C01C0
1C01C0
1C01C0
1C01C0
1C01C0
1C01C0
1C01C0
1C01C0
1C03C0
0E1DC0
0FF9F0
03E1F0
ENDCHAR

STARTCHAR udieresis
ENCODING 252
SWIDTH 680 0
DWIDTH 22 0
BBX 21 22 1 0
BITMAP
018C00
03DE00
03DE00
018C00
000000
000000
3C03C0
FC0FC0
1C01C0
1C01C0
1C01C0
1C01C0
1C01C0
1C01C0
1C01C0
1C01C0
1C01C0
1C01C0
1C03C0
0E0EC0
0FF8F8
03E0F8
ENDCHAR

STARTCHAR yacute
ENCODING 253
SWIDTH 540 0
DWIDTH 18 0
BBX 19 30 -1 -7
BITMAP
007800
00F800
03E000
000000
000000
000000
000000
7F8FE0
1C0380
1C0300
0E0300
0E0200
070600
070600
070C00
038C00
038800
01D800
01D000
00F000
00F000
006000
006000
004000
00C000
008000
618000
F30000
7E0000
3C0000
ENDCHAR

STARTCHAR tcommaaccent
ENCODING 254
SWIDTH 380 0
DWIDTH 13 0
BBX 12 28 1 -7
BITMAP
0400
0C00
0C00
1C00
3C00
FFE0
FFE0
1C00
1C00
1C00
1C00
1C00
1C00
1C00
1C00
1C00
1C00
1C00
1E10
0FE0
07C0
0000
0600
0F00
0700
0100
0300
0600
ENDCHAR

STARTCHAR dotaccent
ENCODING 255
SWIDTH 260 0
DWIDTH 9 0
BBX 4 4 2 18
BITMAP
60
F0
F0
60
ENDCHAR
ENDFONT
